<svg xmlns="http://www.w3.org/2000/svg" viewBox="0 0 48 48">
  <path fill="#FFC107" d="M43.611 20.083H42V20H24v8h11.303C33.655 32.657 29.201 36 24 36c-6.627 0-12-5.373-12-12s5.373-12 12-12c3.059 0 5.842 1.154 7.961 3.039l5.657-5.657C34.044 6.053 29.27 4 24 4 12.955 4 4 12.955 4 24s8.955 20 20 20 20-8.955 20-20c0-1.341-.138-2.65-.389-3.917z"/>
  <path fill="#FF3D00" d="M6.306 14.691l6.571 4.819C14.655 15.108 18.961 12 24 12c3.059 0 5.842 1.154 7.961 3.039l5.657-5.657C34.044 6.053 29.27 4 24 4 16.318 4 9.656 8.337 6.306 14.691z"/>
  <path fill="#4CAF50" d="M24 44c5.098 0 9.786-1.947 13.344-5.12l-6.191-5.238C29.077 35.211 26.636 36 24 36c-5.18 0-9.625-3.328-11.285-7.946l-6.522 5.025C9.504 39.556 16.227 44 24 44z"/>
  <path fill="#1976D2" d="M43.611 20.083H42V20H24v8h11.303a12.05 12.05 0 0 1-4.15 5.642l.003-.002 6.191 5.238C36.91 39.199 44 34 44 24c0-1.341-.138-2.65-.389-3.917z"/>
</svg>
